<svg width="24" height="25" viewBox="0 0 24 25" fill="none" xmlns="http://www.w3.org/2000/svg">
<path d="M17.79 23.2763H6.21C3.47 23.2763 1.25 21.0463 1.25 18.3063V10.8963C1.25 9.53634 2.09 7.82634 3.17 6.98634L8.56 2.78634C10.18 1.52634 12.77 1.46634 14.45 2.64634L20.63 6.97634C21.82 7.80634 22.75 9.58634 22.75 11.0363V18.3163C22.75 21.0463 20.53 23.2763 17.79 23.2763ZM9.48 3.96634L4.09 8.16634C3.38 8.72634 2.75 9.99634 2.75 10.8963V18.3063C2.75 20.2163 4.3 21.7763 6.21 21.7763H17.79C19.7 21.7763 21.25 20.2263 21.25 18.3163V11.0363C21.25 10.0763 20.56 8.74634 19.77 8.20634L13.59 3.87634C12.45 3.07634 10.57 3.11634 9.48 3.96634Z" fill="white"/>
<path d="M12 19.2764C11.59 19.2764 11.25 18.9364 11.25 18.5264V15.5264C11.25 15.1164 11.59 14.7764 12 14.7764C12.41 14.7764 12.75 15.1164 12.75 15.5264V18.5264C12.75 18.9364 12.41 19.2764 12 19.2764Z" fill="white"/>
</svg>
