<svg width="24" height="25" viewBox="0 0 24 25" fill="none" xmlns="http://www.w3.org/2000/svg">
<path d="M14.7 23.2763H9.30001C4.36001 23.2763 2.26001 21.1663 2.26001 16.2363V11.7463C2.26001 11.3363 2.60001 10.9963 3.01001 10.9963C3.42001 10.9963 3.76001 11.3363 3.76001 11.7463V16.2363C3.76001 20.3263 5.21001 21.7763 9.30001 21.7763H14.69C18.78 21.7763 20.23 20.3263 20.23 16.2363V11.7463C20.23 11.3363 20.57 10.9963 20.98 10.9963C21.39 10.9963 21.73 11.3363 21.73 11.7463V16.2363C21.74 21.1663 19.63 23.2763 14.7 23.2763Z" fill="white"/>
<path d="M12 13.2764C10.9 13.2764 9.9 12.8464 9.19 12.0564C8.48 11.2664 8.15 10.2364 8.26 9.13637L8.93 2.45637C8.97 2.07637 9.29 1.77637 9.68 1.77637H14.35C14.74 1.77637 15.06 2.06637 15.1 2.45637L15.77 9.13637C15.88 10.2364 15.55 11.2664 14.84 12.0564C14.1 12.8464 13.1 13.2764 12 13.2764ZM10.35 3.27637L9.75 9.28637C9.68 9.95637 9.88 10.5864 10.3 11.0464C11.15 11.9864 12.85 11.9864 13.7 11.0464C14.12 10.5764 14.32 9.94637 14.25 9.28637L13.65 3.27637H10.35Z" fill="white"/>
<path d="M18.31 13.2764C16.28 13.2764 14.47 11.6364 14.26 9.61637L13.56 2.60637C13.54 2.39637 13.61 2.18637 13.75 2.02637C13.89 1.86637 14.09 1.77637 14.31 1.77637H17.36C20.3 1.77637 21.67 3.00637 22.08 6.02637L22.36 8.80637C22.48 9.98637 22.12 11.1064 21.35 11.9564C20.58 12.8064 19.5 13.2764 18.31 13.2764ZM15.14 3.27637L15.76 9.46637C15.89 10.7164 17.05 11.7764 18.31 11.7764C19.07 11.7764 19.75 11.4864 20.24 10.9564C20.72 10.4264 20.94 9.71637 20.87 8.95637L20.59 6.20637C20.28 3.94637 19.55 3.27637 17.36 3.27637H15.14V3.27637Z" fill="white"/>
<path d="M5.64002 13.2764C4.45002 13.2764 3.37002 12.8064 2.60002 11.9564C1.83002 11.1064 1.47002 9.98637 1.59002 8.80637L1.86002 6.05637C2.28002 3.00637 3.65002 1.77637 6.59002 1.77637H9.64002C9.85002 1.77637 10.05 1.86637 10.2 2.02637C10.35 2.18637 10.41 2.39637 10.39 2.60637L9.69002 9.61637C9.48002 11.6364 7.67002 13.2764 5.64002 13.2764ZM6.59002 3.27637C4.40002 3.27637 3.67002 3.93637 3.35002 6.22637L3.08002 8.95637C3.00002 9.71637 3.23002 10.4264 3.71002 10.9564C4.19002 11.4864 4.87002 11.7764 5.64002 11.7764C6.90002 11.7764 8.07002 10.7164 8.19002 9.46637L8.81002 3.27637H6.59002V3.27637Z" fill="white"/>
<path d="M14.5 23.2764H9.5C9.09 23.2764 8.75 22.9364 8.75 22.5264V20.0264C8.75 17.9264 9.9 16.7764 12 16.7764C14.1 16.7764 15.25 17.9264 15.25 20.0264V22.5264C15.25 22.9364 14.91 23.2764 14.5 23.2764ZM10.25 21.7764H13.75V20.0264C13.75 18.7664 13.26 18.2764 12 18.2764C10.74 18.2764 10.25 18.7664 10.25 20.0264V21.7764Z" fill="white"/>
</svg>
